<?xml version="1.0" encoding="UTF-8"?>
<svg id="Layer_1" xmlns="http://www.w3.org/2000/svg" viewBox="0 0 566.93 566.93">
  <defs>
    <style>
      .cls-1 {
        fill: #85461e;
      }

      .cls-2 {
        fill: #3d398d;
      }

      .cls-3 {
        fill: #fff;
      }

      .cls-4 {
        fill: #007e40;
      }

      .cls-5 {
        fill: #ffd107;
      }

      .cls-6 {
        fill: #a8348b;
      }

      .cls-7 {
        fill: #e96724;
      }

      .cls-8 {
        fill: #65c7f1;
      }

      .cls-9 {
        fill: #7e4770;
      }

      .cls-10 {
        fill: #e21f26;
      }

      .cls-11 {
        fill: #fed600;
      }

      .cls-12 {
        fill: #ec7da7;
      }
    </style>
  </defs>
  <path class="cls-2" d="M524.65,176.35c-2.82-9.53-6.7-18.6-11.41-27.13h-251.12l67.26,67.26h200.81c.3-12.76-1.4-26.15-5.54-40.13Z"/>
  <path class="cls-6" d="M513.23,149.21c-17.54-31.77-47.31-55.65-83.34-64.08-6.7-1.57-13.33-2.6-19.88-3.18h-24.34c-42.58,3.92-79.29,28.05-100.52,62.69-.78,1.28-2.59,1.28-3.37,0-18.51-30.19-48.77-52.38-84.43-60.19l64.76,64.76h251.12Z"/>
  <path class="cls-4" d="M396.63,283.73h112.16c12.58-19.75,20.81-42.29,21.39-67.26h-200.81l67.26,67.26Z"/>
  <path class="cls-5" d="M329.37,351h115.34c17.02-15.11,31.69-28.69,41.48-38.84,8.4-8.69,16.08-18.19,22.6-28.42h-112.16l-67.26,67.26Z"/>
  <path class="cls-7" d="M262.11,418.26h103.99c26.34-21.98,54.79-46.12,78.61-67.26h-115.34l-67.26,67.26Z"/>
  <path class="cls-1" d="M137.04,85.13c-3.79.89-7.48,2.01-11.13,3.23l195.38,195.38-128.12,128.12c6.97,5.84,13.83,11.55,20.48,17.07l145.19-145.19L157.05,81.94c-6.59.58-13.27,1.61-20.01,3.19Z"/>
  <path class="cls-8" d="M321.05,283.73L125.73,88.42c-9.04,3.04-17.6,7.06-25.59,11.96l183.36,183.36-110.84,110.84c6.82,5.77,13.65,11.52,20.39,17.17l128.01-128.01Z"/>
  <path class="cls-12" d="M100.12,100.39c-7.7,4.71-14.87,10.2-21.4,16.39l166.96,166.96-93.44,93.44c6.71,5.76,13.55,11.59,20.4,17.39l110.83-110.83L100.12,100.39Z"/>
  <path class="cls-3" d="M61.21,137.06l146.67,146.67-75.88,75.88c6.54,5.73,13.31,11.6,20.24,17.55l93.44-93.44L78.72,116.78c-6.48,6.14-12.36,12.92-17.51,20.28Z"/>
  <path class="cls-10" d="M234.35,446.02c-6.54-5.38,41.08,33.57,47.91,39.08.34.27.74.4,1.14.41h.13c.4-.02.8-.14,1.14-.41,6.83-5.51,41.71-33.71,81.43-66.85h-103.99l-27.77,27.77Z"/>
  <path d="M234.35,446.02l162.29-162.29L197.35,84.45c-12.83-2.81-26.37-3.73-40.3-2.51l201.79,201.79-134.52,134.52-10.67,10.67c7.22,5.99,14.15,11.72,20.69,17.1Z"/>
  <path class="cls-11" d="M92.28,323.57c3.44.93,7.04,1.47,10.78,1.47,22.81,0,41.3-18.49,41.3-41.3s-18.49-41.3-41.3-41.3-41.3,18.49-41.3,41.3c0,2.09.21,4.13.51,6.14,5.56,7.92,11.79,15.36,18.48,22.28,3.31,3.42,7.22,7.28,11.54,11.41Z"/>
  <path class="cls-11" d="M207.88,283.73L61.21,137.06c-8.28,11.83-14.72,25.08-18.92,39.29-11.3,38.18-4.42,71.97,11.66,100.42,3.4-24.12,24.06-42.69,49.11-42.69,27.42,0,49.66,22.23,49.66,49.66s-22.23,49.66-49.66,49.66c-.12,0-.23-.02-.34-.02,8.74,8.06,18.68,16.94,29.29,26.24l75.88-75.88Z"/>
  <path class="cls-9" d="M152.71,283.73c0-27.42-22.23-49.66-49.66-49.66-25.05,0-45.72,18.57-49.11,42.69,2.55,4.51,5.34,8.87,8.31,13.1-.3-2.01-.51-4.05-.51-6.14,0-22.81,18.49-41.3,41.3-41.3s41.3,18.49,41.3,41.3-18.49,41.3-41.3,41.3c-3.73,0-7.33-.54-10.78-1.47,3.25,3.11,6.71,6.36,10.43,9.8.11,0,.23.02.34.02,27.42,0,49.66-22.23,49.66-49.66Z"/>
</svg> 